<?xml version="1.0" standalone="no"?>
<!DOCTYPE svg PUBLIC "-//W3C//DTD SVG 20010904//EN"
 "http://www.w3.org/TR/2001/REC-SVG-20010904/DTD/svg10.dtd">
<svg version="1.0" xmlns="http://www.w3.org/2000/svg"
 width="980.000000pt" height="880.000000pt" viewBox="0 0 980.000000 880.000000"
 preserveAspectRatio="xMidYMid meet">

<g transform="translate(0.000000,880.000000) scale(0.100000,-0.100000)"
fill="#000000" stroke="none">
<path d="M215 8791 c-83 -21 -150 -85 -186 -177 -33 -85 -33 -218 0 -292 28
-62 110 -141 167 -161 27 -10 126 -16 334 -21 273 -6 299 -8 352 -28 122 -49
203 -147 243 -299 9 -32 202 -1302 431 -2823 228 -1521 422 -2790 431 -2820
19 -69 74 -181 118 -240 105 -144 291 -261 491 -312 l89 -23 2945 0 c2800 0
2948 1 2996 18 70 24 126 75 154 139 31 69 33 188 6 268 -24 70 -101 149 -171
176 -49 19 -117 19 -2895 24 -2624 5 -2848 6 -2886 22 -111 44 -189 122 -228
228 -13 36 -96 519 -96 560 0 6 966 11 2808 12 l2807 3 94 28 c242 71 425 215
526 414 43 85 1019 3230 1040 3352 29 163 11 313 -51 440 -91 184 -279 289
-576 321 -65 7 -1279 10 -3703 10 -1983 0 -3605 3 -3605 7 0 30 -104 762 -116
813 -33 146 -109 251 -220 301 -123 56 -178 61 -749 65 -286 1 -533 -1 -550
-5z m8649 -1844 c87 -26 153 -65 179 -106 31 -50 29 -161 -6 -302 -48 -198
-807 -2642 -836 -2694 -34 -61 -105 -117 -186 -147 l-60 -23 -2777 -3 -2776
-2 -6 37 c-3 21 -103 747 -221 1613 -118 866 -218 1592 -221 1613 l-6 37 3429
-2 c3256 -3 3431 -4 3487 -21z"/>
<path d="M3102 1260 c-212 -56 -386 -221 -455 -433 -30 -94 -30 -267 1 -367
94 -299 384 -490 686 -451 254 33 447 192 532 436 25 71 28 94 28 200 0 98 -5
132 -23 185 -76 219 -242 375 -457 430 -98 25 -215 25 -312 0z"/>
<path d="M7210 1273 c-54 -9 -158 -46 -210 -76 -76 -42 -199 -168 -243 -248
-72 -128 -96 -311 -62 -458 24 -101 90 -216 170 -297 123 -124 273 -187 445
-188 117 0 181 14 289 66 158 75 292 240 336 413 18 70 20 222 4 297 -39 183
-183 360 -358 440 -106 49 -259 70 -371 51z"/>
</g>
</svg>
